# xmcd
#
# Track frame offsets: 
#        150
#        12965
#        27170
#        46102
#        60150
#        72452
#        87052
#        98410
#        108565
#        119415
#        129985
#        146690
#        160927
#        172607
#        185707
#        195970
#        206134
#        219305
#        233085
#        244082
#        254382
#        263212
#        274842
#
# Disc length: 3790 seconds
#
# Revision: 0
# Processed by: cddbd v1.5.2PL0 Copyright (c) Steve Scherf et al.
# Submitted via: ExactAudioCopyFreeDBPlugin 1.0
#
DISCID=370ecc17
DTITLE=Gene Allison, Roscoe Shelton - You Can Make It If You Try
DYEAR=2002
DGENRE=Blues,Soul,R&B,Nashville
TTITLE0=Roscoe Shelton - I Can't Love Nobody But You
TTITLE1=Roscoe Shelton - These Are My People
TTITLE2=Roscoe Shelton - Reality
TTITLE3=Roscoe Shelton - It's Almost Sundown
TTITLE4=Roscoe Shelton - Worry
TTITLE5=Roscoe Shelton - I Forgot To Remember To Forget
TTITLE6=Roscoe Shelton - Remember Me
TTITLE7=Roscoe Shelton - Yesterday's Mistake
TTITLE8=Roscoe Shelton - Time And Distance
TTITLE9=Stay A Little Longer
TTITLE10=You Can Make It If You Try,Have Faith (medley)
TTITLE11=It's Almost Sundown (take 2)
TTITLE12=I Understand
TTITLE13=Somebody Somewhere
TTITLE14=How Long's The Train Been Gone
TTITLE15=Having A Party
TTITLE16=It's Almost Sundown (take 1)
TTITLE17=Roscoe Shelton and/or Gene Allison - Goodbye My Love
TTITLE18=Roscoe Shelton and/or Gene Allison - If Things Don't Change
TTITLE19=Roscoe Shelton and/or Gene Allison - I Understand
TTITLE20=Roscoe Shelton and/or Gene Allison - Now that We're Together
TTITLE21=Roscoe Shelton and/or Gene Allison - You're Gonna Be Sorry
TTITLE22=Roscoe Shelton and/or Gene Allison - I Know I Can Make It
EXTD=
EXTT0=
EXTT1=
EXTT2=
EXTT3=
EXTT4=
EXTT5=
EXTT6=
EXTT7=
EXTT8=
EXTT9=
EXTT10=
EXTT11=
EXTT12=
EXTT13=
EXTT14=
EXTT15=
EXTT16=
EXTT17=
EXTT18=
EXTT19=
EXTT20=
EXTT21=
EXTT22=
PLAYORDER=
